<svg width="166" height="56" viewBox="0 0 166 56" fill="none" xmlns="http://www.w3.org/2000/svg">
<path d="M91.8357 15.1567C91.8357 13.3988 93.2438 11.9419 94.9406 11.9419C96.6394 11.9419 98.0455 13.3988 98.0455 15.1567V40.8748C98.0455 42.6327 96.6373 44.0896 94.9406 44.0896C94.1633 44.0896 93.3387 43.7886 92.7573 43.1344L73.2024 22.8926V40.8748C73.2024 42.6327 71.7943 44.0896 70.0975 44.0896C68.4008 44.0896 66.9927 42.6327 66.9927 40.8748V15.1567C66.9927 13.3988 68.4008 11.9419 70.0975 11.9419C70.9222 11.9419 71.6995 12.2931 72.2808 12.8971L91.8357 33.1389V15.1567Z" fill="#373435"/>
<path d="M103.037 17.4162C102.454 16.8142 102.115 16.0095 102.115 15.1567C102.115 13.4489 103.571 11.9419 105.22 11.9419C106.045 11.9419 106.822 12.2931 107.404 12.8971L117.642 23.4946L127.88 12.8971C128.464 12.2931 129.239 11.9419 130.063 11.9419C131.713 11.9419 133.168 13.4489 133.168 15.1567C133.168 16.0115 132.828 16.8142 132.247 17.4162L122.008 28.0158L132.247 38.6153C132.83 39.2675 133.168 40.0722 133.168 40.8748C133.168 42.6327 131.76 44.0896 130.063 44.0896C129.239 44.0896 128.511 43.7886 127.88 43.1344L117.642 32.5369L107.404 43.1344C106.773 43.7886 105.996 44.0896 105.22 44.0896C103.522 44.0896 102.115 42.6327 102.115 40.8748C102.115 40.02 102.406 39.2675 103.037 38.6153L113.275 28.0158L103.037 17.4162Z" fill="#373435"/>
<path d="M148.919 18.3714H140.087C138.388 18.3714 136.982 16.9146 136.982 15.1567C136.982 13.3988 138.39 11.9419 140.087 11.9419H162.895C164.594 11.9419 166 13.3988 166 15.1567C166 16.9146 164.592 18.3714 162.895 18.3714H155.131V40.8748C155.131 42.6327 153.723 44.0896 152.026 44.0896C150.327 44.0896 148.921 42.6327 148.921 40.8748V18.3714H148.919Z" fill="#373435"/>
<path d="M12.8356 17.4888H5.74756V35.8001H12.8356V17.4888Z" fill="#D6D8D6"/>
<path d="M50.0011 17.4897H42.9131V35.8011H50.0011V17.4897Z" fill="#D6D8D6"/>
<path d="M44.6368 40.585L48.8032 31.4761L8.84272 14.1593L4.67632 23.2682L44.6368 40.585Z" fill="#D6D8D6"/>
<path d="M27.9755 9.35936C30.6308 9.35936 32.7833 7.2642 32.7833 4.67968C32.7833 2.09517 30.6308 0 27.9755 0C25.3202 0 23.1677 2.09517 23.1677 4.67968C23.1677 7.2642 25.3202 9.35936 27.9755 9.35936Z" fill="#ADADAD"/>
<path d="M27.9758 56C30.631 56 32.7836 53.9048 32.7836 51.3203C32.7836 48.7358 30.631 46.6406 27.9758 46.6406C25.3205 46.6406 23.168 48.7358 23.168 51.3203C23.168 53.9048 25.3205 56 27.9758 56Z" fill="#ADADAD"/>
<path d="M25.6489 7.52445L24.2861 5.22705L9.50123 13.5359L10.864 15.8333L25.6489 7.52445Z" fill="#ADADAD"/>
<path d="M44.918 15.835L46.2808 13.5376L31.4959 5.22876L30.1331 7.52616L44.918 15.835Z" fill="#ADADAD"/>
<path d="M24.2881 50.7334L25.6509 48.436L10.866 40.1272L9.50321 42.4246L24.2881 50.7334Z" fill="#ADADAD"/>
<path d="M46.2793 42.4248L44.9165 40.1274L30.1316 48.4363L31.4943 50.7337L46.2793 42.4248Z" fill="#ADADAD"/>
<path d="M48.6357 45.3903C45.2916 45.3903 42.5723 42.7435 42.5723 39.4886C42.5723 39.4103 42.5744 39.3341 42.5785 39.2558L10.7299 21.3578C10.4784 21.5224 10.2124 21.6709 9.93411 21.7993V34.1868C12.0267 35.1541 13.3791 37.1849 13.3791 39.4886C13.3791 42.7415 10.6598 45.3903 7.31579 45.3903C3.97177 45.3903 1.25244 42.7435 1.25244 39.4886C1.25244 37.1828 2.60283 35.1541 4.69748 34.1868V21.7993C2.60489 20.8321 1.25244 18.8033 1.25244 16.4975C1.25244 13.2446 3.97177 10.5958 7.31579 10.5958C10.6598 10.5958 13.3791 13.2426 13.3791 16.4975C13.3791 16.646 13.373 16.7965 13.3585 16.9511L45.036 34.7527C45.3432 34.536 45.671 34.3453 46.0173 34.1848V21.7973C43.9248 20.8321 42.5723 18.8013 42.5723 16.4955C42.5723 13.2426 45.2916 10.5938 48.6357 10.5938C51.9797 10.5938 54.699 13.2406 54.699 16.4955C54.699 18.8013 53.3466 20.83 51.254 21.7973V34.1848C53.3466 35.15 54.699 37.1808 54.699 39.4866C54.699 42.7435 51.9797 45.3903 48.6357 45.3903Z" fill="url(#paint0_linear_576_552)"/>
<path d="M48.6367 11.8201C51.2921 11.8201 53.4445 13.9151 53.4445 16.4998C53.4445 18.6209 51.9869 20.3908 49.9995 20.9648V35.0239C51.9869 35.5998 53.4445 37.3697 53.4445 39.4888C53.4445 42.0735 51.2921 44.1685 48.6367 44.1685C45.9813 44.1685 43.8289 42.0735 43.8289 39.4908C43.8289 39.1858 43.864 38.8908 43.9217 38.6019L10.6196 19.8871C10.0774 20.3868 9.41562 20.752 8.68167 20.9648V35.0239C10.6691 35.5998 12.1267 37.3697 12.1267 39.4888C12.1267 42.0735 9.97433 44.1685 7.31891 44.1685C4.66348 44.1685 2.5111 42.0735 2.5111 39.4888C2.5111 37.3677 3.9687 35.5978 5.95615 35.0239V20.9648C3.9687 20.3888 2.5111 18.6189 2.5111 16.4998C2.5111 13.9151 4.66348 11.8201 7.31891 11.8201C9.97433 11.8201 12.1267 13.9151 12.1267 16.4998C12.1267 16.8771 12.069 17.2383 11.9824 17.5894L45.1834 36.248C45.7504 35.676 46.4699 35.2587 47.276 35.0259V20.9668C45.2886 20.3908 43.831 18.6209 43.831 16.5018C43.8289 13.9151 45.9813 11.8201 48.6367 11.8201ZM48.6367 9.37793C44.602 9.37793 41.3199 12.5726 41.3199 16.4998C41.3199 19.0122 42.6476 21.2557 44.7649 22.526V33.1917L14.6296 16.257C14.4976 12.4422 11.267 9.37793 7.31684 9.37793C3.28217 9.37793 0 12.5726 0 16.4998C0 19.0122 1.32771 21.2557 3.44504 22.526V33.4626C1.32771 34.7329 0 36.9764 0 39.4888C0 43.416 3.28217 46.6107 7.31684 46.6107C11.3515 46.6107 14.6337 43.416 14.6337 39.4888C14.6337 36.9764 13.306 34.7329 11.1886 33.4626V23.0277L41.3343 39.9684C41.5879 43.6729 44.7649 46.6107 48.6346 46.6107C52.6693 46.6107 55.9515 43.416 55.9515 39.4888C55.9515 36.9764 54.6238 34.7329 52.5064 33.4626V22.526C54.6238 21.2557 55.9515 19.0122 55.9515 16.4998C55.9535 12.5726 52.6714 9.37793 48.6367 9.37793Z" fill="white"/>
<defs>
<linearGradient id="paint0_linear_576_552" x1="1.25376" y1="27.9945" x2="54.6987" y2="27.9945" gradientUnits="userSpaceOnUse">
<stop stop-color="#3EC5F0"/>
<stop offset="0.2063" stop-color="#0880BD"/>
<stop offset="1" stop-color="#1F2F5E"/>
</linearGradient>
</defs>
</svg>
